PathFileType	4	(X/Y/Z)	C:/Users/beibeiliu/ov580/test_trc/User1\sequence.18_training_dense_right.trc
DataRate	CameraRate	NumFrames	NumMarkers	Units	OrigDataRate	OrigDataStartFrame	OrigNumFrames
120	120	16	19	mm	120	36	286
Frame#	Time	ThumbCMC			ThumbMCP			ThumbIP			ThumbTip			IndexMCP			IndexPIP			IndexTip			MiddleMCP			MiddlePIP			MiddleTip			RingMCP			RingPIP			RingTip			PinkyMCP			PinkyPIP			PinkyTip			BackHand1			BackHand2			BackHand3	
		X0	Y0	Z0	X1	Y1	Z1	X2	Y2	Z2	X3	Y3	Z3	X4	Y4	Z4	X5	Y5	Z5	X6	Y6	Z6	X7	Y7	Z7	X8	Y8	Z8	X9	Y9	Z9	X10	Y10	Z10	X11	Y11	Z11	X12	Y12	Z12	X13	Y13	Z13	X14	Y14	Z14	X15	Y15	Z15	X16	Y16	Z16	X17	Y17	Z17	X18	Y18	Z18	
35	0.291667	132.282	70.4696	67.3755	113.388	79.1322	28.521	117.743	84.2003	0.942538	144.251	78.649	-15.6527	144.811	138.833	9.4024	139.273	131.311	-19.7248	123.097	101.074	-13.6918	169.379	139.708	0.136484	156.11	131.809	-30.333	147.746	94.2054	-21.705	191.729	122.823	-1.03316	174.43	120.189	-31.8236	164.837	86.221	-26.5866	203.595	102.648	2.03511	194.903	107.555	-20.8131	171.03	87.929	-34.031	194.878	92.4146	50.8526	198.953	69.8062	77.4082	168.509	94.2782	71.0913	
36	0.3	131.092	71.7787	64.3673	113.576	75.4567	30.1559	121.913	86.1859	-2.13497	146.847	77.6969	-17.2083	147.133	134.968	8.44779	134.198	129.452	-20.8114	125.702	96.5745	-12.2371	164.96	137.884	0.708455	154.722	129.608	-29.3106	141.91	91.5158	-18.2672	188.487	121.956	-1.13243	173.321	115.841	-32.1844	162.464	85.4732	-23.5892	204.885	97.3969	2.69284	190.918	103.032	-27.37	168.837	86.8603	-32.768	193.585	89.1188	48.769	196.649	72.2977	73.772	166.59	90.2851	72.7643	
37	0.308333	131.225	64.636	64.9083	111.261	72.4734	28.0648	122.321	82.9529	-4.30159	150.092	73.9683	-16.6085	143.766	130.2	8.58713	134.946	123.614	-21.7785	119.452	92.4153	-10.7227	165.398	134.26	-0.862548	153.671	123.466	-31.2272	144.742	86.7442	-17.2635	187.547	119.821	-2.46605	170.581	111.008	-33.1836	159.804	83.0444	-23.3458	204.019	96.5545	-1.02165	188.51	98.5209	-27.8653	165.022	76.9125	-28.7562	194.926	86.8959	49.6785	199.705	69.0123	72.303	165.242	91.192	68.4409	
38	0.316667	129.438	62.0865	64.8298	111.479	69.7612	26.7949	123.482	78.9311	-4.33178	148.856	69.0354	-17.0425	141.113	128.349	3.65632	128.83	118.099	-23.2159	120.545	86.2892	-8.8934	166.405	128.762	-2.9049	149.17	120.088	-31.5395	139.644	82.4339	-16.551	183.061	117.926	-7.22619	171.63	108.304	-34.7519	158.281	78.0269	-22.5338	201.484	92.7959	-0.571497	189.716	95.1935	-27.5258	165.969	72.6131	-26.9793	192.823	83.1518	47.3954	195.55	66.4846	71.8377	165.658	88.2345	69.0308	
39	0.325	125.3	60.3731	64.087	113.804	69.3568	23.1013	127.323	74.3606	-3.52965	149.988	63.947	-16	138.844	122.463	7.70488	127.082	115.611	-23.9073	117.988	81.8941	-10.7773	161.477	126.633	-4.99571	147.594	111.486	-34.1015	141.966	76.6054	-16.174	185.093	112.253	-11.3356	167.751	100.829	-35.8613	157.845	71.3463	-19.9498	197.966	90.0775	-2.05774	184.786	87.9176	-29.5777	165.072	61.8508	-23.1938	195.447	79.5173	44.8601	197.864	58.4238	71.3365	164.241	85.3529	68.5832	
40	0.333333	125.876	60.4131	61.3097	112.769	63.5085	22.7218	124.424	68.0162	-6.12529	152.004	59.6229	-15.9739	138.361	119.463	4.43768	128.953	107.039	-25.88	120.519	73.6312	-8.69884	165.628	119.267	-7.45222	147.95	108.766	-34.425	140.476	71.5012	-17.722	186.5	103.15	-10.7835	167.492	93.7535	-37.2954	159.424	64.4095	-23.0032	201.468	82.5443	-6.38054	184.158	79.2003	-32.0586	165.68	53.7373	-23.4132	192.805	76.1767	43.8486	197.256	56.4436	71.0283	166.27	78.7716	65.7422	
41	0.341667	126.695	55.4187	59.324	109.593	57.6956	20.8768	126.555	63.4048	-7.42483	154.56	53.3163	-18.3825	135.565	114.598	0.669686	125.942	99.2788	-28.4225	118.44	69.4785	-12.6564	161.066	115.696	-12.3268	148.212	98.5233	-38.3213	143.038	64.3647	-16.9213	183.502	99.3439	-16.9113	165.775	87.8145	-39.5292	159.254	56.6547	-19.4313	200.201	76.0707	-7.57934	178.487	71.4242	-31.3937	165.413	46.7976	-22.3389	193.85	71.6337	44.1383	194.746	53.0977	66.2583	161.929	76.1045	65.8196	
42	0.35	126.886	50.9736	56.0835	110.658	51.3264	18.7108	125.545	57.1053	-11.8961	155.642	48.1267	-22.1758	135.885	107.309	-7.09909	126.661	91.7212	-30.8781	120.815	61.888	-13.187	161.401	108.59	-17.1386	148.019	92.2068	-41.262	141.435	58.2164	-18.2898	178.257	93.6423	-17.2677	163.267	77.0776	-41.6428	155.346	52.1839	-22.2058	198.675	71.8125	-11.8742	180.085	65.0005	-35.8073	163.92	38.3117	-19.2991	191.962	68.6901	42.1386	194.999	50.4382	64.7288	160.523	74.0229	60.7208	
43	0.358333	123.72	45.9042	54.8844	112.041	46.6757	16.8391	124.667	50.6703	-11.3368	150.548	43.5478	-22.8332	136.789	100.977	-5.44598	121.434	82.9863	-33.4114	118.799	56.0499	-14.2996	159.291	100.837	-14.9851	141.971	84.7658	-41.6856	139.21	53.637	-18.9554	178.719	88.3125	-19.1495	160.605	68.1484	-42.3059	159.806	44.1329	-21.3426	197.038	68.2935	-16.2172	176.181	57.7631	-34.9171	164.883	32.7255	-17.7771	190.549	65.003	40.4093	194.171	48.006	64.4784	163.025	66.2579	60.6511	
44	0.366667	127.652	42.1859	51.4293	111.955	41.6713	17.0725	124.515	45.4848	-11.2254	151.307	38.6765	-24.4098	132.511	97.8027	-10.6198	121.98	80.3124	-34.1904	122.85	49.4084	-12.507	156.357	96.8808	-18.7476	144.52	76.3945	-43.0369	140.875	48.0031	-16.3131	177.011	82.7729	-24.506	159.921	61.2307	-42.9463	159.766	39.2801	-19.5972	192.23	63.113	-14.7855	176.234	49.042	-35.3267	164.122	30.1898	-14.2257	191.328	65.14	37.1264	193.694	41.096	65.6597	160.037	63.1369	61.0139	
45	0.375	126.966	37.9532	53.0086	111.728	39.6574	15.2772	123.257	43.9635	-13.9154	153.909	35.6642	-26.314	136.032	92.5846	-6.7065	121.957	76.5033	-33.5661	119.551	46.6809	-10.7959	155.568	93.9064	-16.9045	142.223	76.646	-42.4638	142.301	44.5545	-16.0376	176.357	78.5859	-18.8336	160.696	57.5752	-41.9607	158.439	34.7977	-17.9224	195.248	59.8449	-17.0504	176.986	48.5651	-33.3567	166.137	21.0755	-15.2481	187.947	59.9724	39.642	196.232	39.0728	67.8616	156.96	63.0546	60.3729	
46	0.383333	123.571	36.7861	54.5751	111.936	37.8832	17.4798	124.984	42.3526	-14.7246	149.963	33.4172	-23.2002	132.519	90.6537	-6.4897	125.406	73.3164	-33.7087	121.841	44.0958	-9.05791	157.783	90.7792	-16.3381	142.552	72.489	-41.7628	142.38	42.9707	-16.0178	176.748	76.371	-18.4331	160.681	55.2767	-41.3406	158.052	32.8636	-16.2653	196.757	57.1842	-17.3359	176.916	39.9476	-34.2393	164.473	22.7292	-12.7558	192.307	57.933	35.7505	195.722	40.3288	65.3553	161.133	60.0753	60.4021	
47	0.391667	127.684	34.0824	57.452	109.541	36.7095	16.7296	121.791	39.6703	-12.4298	151.93	32.3891	-20.52	132.492	89.12	-5.08369	126.403	70.0267	-33.9609	118.252	44.3413	-11.939	160.116	88.8558	-18.9906	142.683	67.5723	-41.5101	139.615	40.5984	-12.7624	178.545	73.6739	-18.9799	163.041	50.4689	-41.5556	158.239	31.2338	-16.9237	195.385	54.4732	-15.3004	175.371	42.9226	-31.8033	162.078	21.3072	-13.7309	193.529	55.5387	39.8541	193.485	37.0688	69.6276	160.693	57.0635	63.8463	
48	0.4	125.215	33.8192	57.0523	108.798	34.167	17.4121	124.455	38.307	-13.1375	149.539	29.302	-23.4714	134.129	88.2409	-11.2297	122.396	71.9971	-33.1264	121.817	42.008	-12.3047	160.297	86.7999	-19.5847	142.565	67.8394	-41.1168	139.833	39.1299	-12.9034	176.694	73.6283	-20.0078	163.262	53.4823	-42.0326	160.505	28.8246	-12.7578	196.517	51.8691	-13.5647	179.013	39.0799	-35.827	162.454	20.1905	-14.9054	193.097	52.1754	40.5658	196.044	37.0338	67.1614	161.071	57.1569	63.1785	
49	0.408333	127.973	34.6165	55.8486	112.739	36.5352	15.3109	122.763	36.3636	-11.4352	152.525	29.3291	-22.4419	135.065	85.9932	-7.33409	122.991	64.8639	-31.1673	121.445	40.1002	-6.12253	157.383	86.5483	-14.2211	144.678	63.2253	-41.0727	141.182	38.8156	-13.9155	179.599	71.7155	-22.157	160.765	53.7643	-41.035	158.829	28.5741	-13.2314	194.301	52.4741	-11.6997	178.763	38.7848	-34.6996	161.803	19.4092	-16.0362	193.066	53.827	38.9942	193.006	35.9401	66.6206	162.558	57.299	64.0354	
50	0.416667	124.102	35.7866	55.2321	109.787	34.0095	15.6761	123.335	36.0108	-10.63	154.073	29.3563	-23.6955	131.911	87.601	-8.07236	120.951	66.2244	-31.3799	120.153	39.7519	-8.11294	156.02	87.4145	-18.958	141.687	67.592	-39.6339	144.554	37.4051	-12.8891	180.03	71.8738	-21.341	162.662	53.0232	-41.0351	160.688	28.3143	-13.4998	193.578	52.401	-13.3496	174.07	41.5248	-31.6885	165.37	15.9309	-15.051	190.006	56.3638	38.2058	193.649	37.8829	67.2575	163.002	55.2897	63.7805	
